name rise30.2954peak35.7071fall66.7804.mot
datacolumns 19
datarows 35
range 7.15997900000000 7.21665900000000
endheader
time	ground_force1_vx	ground_force1_vy	ground_force1_vz	ground_force1_px	ground_force1_py	ground_force1_pz	ground_force2_vx	ground_force2_vy	ground_force2_vz	ground_force2_px	ground_force2_py	ground_force2_pz	ground_torque1_x	ground_torque1_y	ground_torque1_z	ground_torque2_x	ground_torque2_y	ground_torque2_z	
7.15997900000000	-3.14637900000000	42.32389400000000	-10.53631600000000	0.32185400000000	0.00000000000000	0.06905400000000	-49.06324300000000	802.30071699999996	-53.61220300000000	0.13474200000000	0.00000000000000	-0.10088600000000	0.00000000000000	-7.43196000000000	0.00000000000000	0.00000000000000	-22.61556700000000	0.00000000000000	
7.16164300000000	-3.35579900000000	49.67382800000000	-11.87748000000000	0.32764200000000	0.00000000000000	0.06976800000000	-50.08834300000000	800.50051099999996	-53.37142400000000	0.13389700000000	0.00000000000000	-0.10075800000000	0.00000000000000	-8.46751700000000	0.00000000000000	0.00000000000000	-22.66468600000000	0.00000000000000	
7.16331400000000	-3.47667400000000	57.12925900000000	-13.10679800000000	0.33285100000000	0.00000000000000	0.07041700000000	-51.13682600000000	798.56393200000002	-53.10576100000000	0.13305700000000	0.00000000000000	-0.10062700000000	0.00000000000000	-9.43789300000000	0.00000000000000	0.00000000000000	-22.71591400000000	0.00000000000000	
7.16498100000000	-3.49879200000000	64.59345700000000	-14.19646000000000	0.33757500000000	0.00000000000000	0.07101200000000	-52.20729400000000	796.48672699999997	-52.81460700000000	0.13222200000000	0.00000000000000	-0.10049300000000	0.00000000000000	-10.32102800000000	0.00000000000000	0.00000000000000	-22.76893600000000	0.00000000000000	
7.16664000000000	-3.41604900000000	71.99215000000000	-15.12781600000000	0.34188800000000	0.00000000000000	0.07156100000000	-53.29821100000000	794.26464099999998	-52.49739300000000	0.13139300000000	0.00000000000000	-0.10035500000000	0.00000000000000	-11.10132800000000	0.00000000000000	0.00000000000000	-22.82341600000000	0.00000000000000	
7.16831300000000	-3.22635000000000	79.27586700000001	-15.89152900000000	0.34584900000000	0.00000000000000	0.07207100000000	-54.40790800000000	791.89343499999995	-52.15358700000000	0.13057100000000	0.00000000000000	-0.10021300000000	0.00000000000000	-11.76994300000000	0.00000000000000	0.00000000000000	-22.87899200000000	0.00000000000000	
7.16997600000000	-2.93120000000000	86.41985699999999	-16.48694100000000	0.34950600000000	0.00000000000000	0.07254800000000	-55.53458300000000	789.36889199999996	-51.78269900000000	0.12975500000000	0.00000000000000	-0.10006800000000	0.00000000000000	-12.32445300000000	0.00000000000000	0.00000000000000	-22.93528000000000	0.00000000000000	
7.17164100000000	-2.53508100000000	93.42198700000000	-16.92083900000000	0.35289900000000	0.00000000000000	0.07299600000000	-56.67630700000000	786.68683699999997	-51.38428300000000	0.12894600000000	0.00000000000000	-0.09992000000000	0.00000000000000	-12.76807900000000	0.00000000000000	0.00000000000000	-22.99187300000000	0.00000000000000	
7.17330700000000	-2.04469000000000	100.29914400000000	-17.20582300000000	0.35605900000000	0.00000000000000	0.07341900000000	-57.83101900000000	783.84314700000004	-50.95794500000000	0.12814500000000	0.00000000000000	-0.09976800000000	0.00000000000000	-13.10856500000000	0.00000000000000	0.00000000000000	-23.04834400000000	0.00000000000000	
7.17497600000000	-1.46813600000000	107.08270100000000	-17.35848100000000	0.35901400000000	0.00000000000000	0.07381900000000	-58.99654100000000	780.83376199999998	-50.50334100000000	0.12735200000000	0.00000000000000	-0.09961200000000	0.00000000000000	-13.35687900000000	0.00000000000000	0.00000000000000	-23.10424400000000	0.00000000000000	
7.17664400000000	-0.81416600000000	113.81359000000000	-17.39755900000000	0.36178500000000	0.00000000000000	0.07420000000000	-60.17057200000000	777.65470700000003	-50.02018500000000	0.12656700000000	0.00000000000000	-0.09945200000000	0.00000000000000	-13.52588000000000	0.00000000000000	0.00000000000000	-23.15910800000000	0.00000000000000	
7.17830900000000	-0.09147900000000	120.53744399999999	-17.34226600000000	0.36439300000000	0.00000000000000	0.07456400000000	-61.35069900000000	774.30209600000001	-49.50824800000000	0.12579100000000	0.00000000000000	-0.09928900000000	0.00000000000000	-13.62905700000000	0.00000000000000	0.00000000000000	-23.21245100000000	0.00000000000000	
7.17997800000000	0.69183700000000	127.30019100000000	-17.21084200000000	0.36685300000000	0.00000000000000	0.07491200000000	-62.53440000000000	770.77215799999999	-48.96736600000000	0.12502500000000	0.00000000000000	-0.09912100000000	0.00000000000000	-13.67943400000000	0.00000000000000	0.00000000000000	-23.26377400000000	0.00000000000000	
7.18164000000000	1.52871600000000	134.14436900000001	-17.01943900000000	0.36917800000000	0.00000000000000	0.07524600000000	-63.71905300000000	767.06124299999999	-48.39744000000000	0.12426800000000	0.00000000000000	-0.09895000000000	0.00000000000000	-13.68870300000000	0.00000000000000	0.00000000000000	-23.31256400000000	0.00000000000000	
7.18332000000000	2.41337100000000	141.10631400000000	-16.78136500000000	0.37138000000000	0.00000000000000	0.07556800000000	-64.90193800000000	763.16584300000000	-47.79843800000000	0.12352200000000	0.00000000000000	-0.09877500000000	0.00000000000000	-13.66660800000000	0.00000000000000	0.00000000000000	-23.35829200000000	0.00000000000000	
7.18498100000000	3.34139900000000	148.21429100000000	-16.50666600000000	0.37347000000000	0.00000000000000	0.07587800000000	-66.08024800000000	759.08260800000005	-47.17040200000000	0.12278600000000	0.00000000000000	-0.09859500000000	0.00000000000000	-13.62058300000000	0.00000000000000	0.00000000000000	-23.40042400000000	0.00000000000000	
7.18664800000000	4.30976300000000	155.48753300000001	-16.20203500000000	0.37545500000000	0.00000000000000	0.07617800000000	-67.25109600000000	754.80835800000000	-46.51344700000000	0.12206000000000	0.00000000000000	-0.09841200000000	0.00000000000000	-13.55563800000000	0.00000000000000	0.00000000000000	-23.43841300000000	0.00000000000000	
7.18831300000000	5.31666900000000	162.93610300000000	-15.87098300000000	0.37734200000000	0.00000000000000	0.07646900000000	-68.41151900000000	750.34010599999999	-45.82776200000000	0.12134600000000	0.00000000000000	-0.09822500000000	0.00000000000000	-13.47443900000000	0.00000000000000	0.00000000000000	-23.47170600000000	0.00000000000000	
7.18997700000000	6.36135500000000	170.56143599999999	-15.51422000000000	0.37913900000000	0.00000000000000	0.07675100000000	-69.55849400000000	745.67507200000000	-45.11361700000000	0.12064300000000	0.00000000000000	-0.09803300000000	0.00000000000000	-13.37756100000000	0.00000000000000	0.00000000000000	-23.49974800000000	0.00000000000000	
7.19163900000000	7.44385300000000	178.35739100000001	-15.13017800000000	0.38084900000000	0.00000000000000	0.07702600000000	-70.68894100000000	740.81070000000000	-44.37136100000000	0.11995100000000	0.00000000000000	-0.09783800000000	0.00000000000000	-13.26384600000000	0.00000000000000	0.00000000000000	-23.52197800000000	0.00000000000000	
7.19331200000000	8.56471100000000	186.31165600000000	-14.71560400000000	0.38247800000000	0.00000000000000	0.07729300000000	-71.79973400000000	735.74467900000002	-43.60142000000000	0.11927100000000	0.00000000000000	-0.09763800000000	0.00000000000000	-13.13083600000000	0.00000000000000	0.00000000000000	-23.53783600000000	0.00000000000000	
7.19497500000000	9.72473100000000	194.40731500000001	-14.26617200000000	0.38403000000000	0.00000000000000	0.07755300000000	-72.88771000000000	730.47495600000002	-42.80430700000000	0.11860200000000	0.00000000000000	-0.09743400000000	0.00000000000000	-12.97521900000000	0.00000000000000	0.00000000000000	-23.54676600000000	0.00000000000000	
7.19664100000000	10.92472800000000	202.62445399999999	-13.77707200000000	0.38550700000000	0.00000000000000	0.07780800000000	-73.94968200000000	724.99975900000004	-41.98061300000000	0.11794600000000	0.00000000000000	-0.09722600000000	0.00000000000000	-12.79326200000000	0.00000000000000	0.00000000000000	-23.54821300000000	0.00000000000000	
7.19831300000000	12.16532400000000	210.94166400000000	-13.24351800000000	0.38691300000000	0.00000000000000	0.07805600000000	-74.98244500000000	719.31761100000006	-41.13101300000000	0.11730100000000	0.00000000000000	-0.09701400000000	0.00000000000000	-12.58120400000000	0.00000000000000	0.00000000000000	-23.54163200000000	0.00000000000000	
7.19997800000000	13.44678400000000	219.33736400000001	-12.66117200000000	0.38825000000000	0.00000000000000	0.07830000000000	-75.98278900000000	713.42734499999995	-40.25626300000000	0.11666800000000	0.00000000000000	-0.09679800000000	0.00000000000000	-12.33557900000000	0.00000000000000	0.00000000000000	-23.52648400000000	0.00000000000000	
7.20164500000000	14.76890800000000	227.79087200000001	-12.02646100000000	0.38951800000000	0.00000000000000	0.07853800000000	-76.94750700000000	707.32812200000001	-39.35720300000000	0.11604700000000	0.00000000000000	-0.09657800000000	0.00000000000000	-12.05346000000000	0.00000000000000	0.00000000000000	-23.50224400000000	0.00000000000000	
7.20330900000000	16.13096800000000	236.28320500000001	-11.33678200000000	0.39072100000000	0.00000000000000	0.07877100000000	-77.87341000000001	701.01944400000002	-38.43475200000000	0.11543700000000	0.00000000000000	-0.09635300000000	0.00000000000000	-11.73262700000000	0.00000000000000	0.00000000000000	-23.46839900000000	0.00000000000000	
7.20497500000000	17.53168200000000	244.79760300000001	-10.59060500000000	0.39185900000000	0.00000000000000	0.07900000000000	-78.75733300000000	694.50116500000001	-37.48990700000000	0.11483900000000	0.00000000000000	-0.09612500000000	0.00000000000000	-11.37165600000000	0.00000000000000	0.00000000000000	-23.42445400000000	0.00000000000000	
7.20664700000000	18.96923700000000	253.31978500000000	-9.78748600000000	0.39293300000000	0.00000000000000	0.07922500000000	-79.59614900000000	687.77349900000002	-36.52374600000000	0.11425200000000	0.00000000000000	-0.09589200000000	0.00000000000000	-10.96993700000000	0.00000000000000	0.00000000000000	-23.36993100000000	0.00000000000000	
7.20831300000000	20.44133000000000	261.83798899999999	-8.92800800000000	0.39394300000000	0.00000000000000	0.07944600000000	-80.38678100000000	680.83703100000002	-35.53742300000000	0.11367600000000	0.00000000000000	-0.09565600000000	0.00000000000000	-10.52764000000000	0.00000000000000	0.00000000000000	-23.30437400000000	0.00000000000000	
7.20997500000000	21.94523800000000	270.34282300000001	-8.01366600000000	0.39489000000000	0.00000000000000	0.07966400000000	-81.12621000000000	673.69271800000001	-34.53216600000000	0.11311100000000	0.00000000000000	-0.09541500000000	0.00000000000000	-10.04563000000000	0.00000000000000	0.00000000000000	-23.22735000000000	0.00000000000000	
7.21164400000000	23.47789500000000	278.82698699999997	-7.04671200000000	0.39577500000000	0.00000000000000	0.07987700000000	-81.81149000000001	666.34189100000003	-33.50927600000000	0.11255600000000	0.00000000000000	-0.09517000000000	0.00000000000000	-9.52536100000000	0.00000000000000	0.00000000000000	-23.13845400000000	0.00000000000000	
7.21330900000000	25.03597400000000	287.28491200000002	-6.02998800000000	0.39659700000000	0.00000000000000	0.08008800000000	-82.43975700000000	658.78625899999997	-32.47012500000000	0.11201100000000	0.00000000000000	-0.09492200000000	0.00000000000000	-8.96874900000000	0.00000000000000	0.00000000000000	-23.03730600000000	0.00000000000000	
7.21497600000000	26.61596900000000	295.71236399999998	-4.96675700000000	0.39735600000000	0.00000000000000	0.08029500000000	-83.00824600000000	651.02790100000004	-31.41615300000000	0.11147500000000	0.00000000000000	-0.09467000000000	0.00000000000000	-8.37804700000000	0.00000000000000	0.00000000000000	-22.92355800000000	0.00000000000000	
7.21665900000000	28.21426900000000	304.10604200000000	-3.86054000000000	0.39805300000000	0.00000000000000	0.08049800000000	-83.51429500000000	643.06926599999997	-30.34886400000000	0.11094800000000	0.00000000000000	-0.09441400000000	0.00000000000000	-7.75572300000000	0.00000000000000	0.00000000000000	-22.79689600000000	0.00000000000000	
